<?xml version="1.0" standalone="no"?>
<!DOCTYPE svg PUBLIC "-//W3C//DTD SVG 20010904//EN"
 "http://www.w3.org/TR/2001/REC-SVG-20010904/DTD/svg10.dtd">
<svg version="1.0" xmlns="http://www.w3.org/2000/svg"
 width="930.000000pt" height="930.000000pt" viewBox="0 0 930.000000 930.000000"
 preserveAspectRatio="xMidYMid meet">
<metadata>
Created by potrace 1.14, written by Peter Selinger 2001-2017
</metadata>
<g transform="translate(0.000000,930.000000) scale(0.100000,-0.100000)"
fill="#000000" stroke="none">
<path d="M8056 9135 c-8 -9 -19 -16 -23 -16 -23 0 -63 -15 -106 -41 -26 -15
-51 -28 -55 -28 -7 0 -19 -10 -98 -78 -17 -15 -42 -34 -54 -42 -13 -8 -31 -22
-39 -30 -9 -9 -38 -31 -64 -49 -26 -19 -47 -38 -47 -42 0 -5 -12 -15 -27 -23
-16 -8 -40 -26 -55 -41 -16 -14 -28 -23 -28 -20 0 3 -11 -5 -24 -19 -13 -15
-26 -26 -30 -26 -6 0 -19 -10 -73 -60 -18 -16 -33 -27 -33 -25 0 4 -27 -17
-64 -50 -6 -5 -37 -30 -68 -54 -32 -24 -58 -47 -58 -52 0 -5 -7 -9 -15 -9 -9
0 -18 -7 -21 -15 -4 -8 -11 -15 -18 -15 -6 0 -28 -16 -48 -36 -21 -19 -38 -33
-38 -30 0 3 -9 -3 -20 -14 -11 -11 -24 -20 -30 -20 -5 0 -10 -8 -10 -17 0 -9
-3 -14 -6 -10 -6 6 -17 -1 -65 -45 -16 -15 -29 -24 -29 -20 0 4 -4 2 -8 -3 -4
-6 -38 -35 -77 -65 -38 -30 -79 -63 -90 -73 -62 -54 -148 -120 -141 -107 5 8
-1 5 -13 -7 -11 -12 -21 -27 -21 -33 0 -6 -4 -9 -9 -5 -5 3 -16 -3 -23 -13 -7
-11 -17 -20 -21 -20 -5 0 -23 -13 -42 -29 -18 -15 -48 -39 -66 -53 -17 -14
-40 -33 -50 -42 -11 -10 -23 -18 -29 -18 -5 0 -10 -5 -10 -11 0 -5 -4 -7 -10
-4 -5 3 -10 -1 -10 -9 0 -9 -4 -16 -8 -16 -8 0 -23 -11 -69 -50 -7 -6 -16 -11
-20 -13 -4 -1 -17 -11 -28 -22 -43 -40 -85 -73 -85 -67 0 4 -6 0 -13 -8 -7 -9
-30 -29 -52 -45 -22 -17 -48 -39 -58 -50 -10 -11 -23 -20 -29 -20 -5 0 -16 -9
-24 -19 -8 -11 -14 -17 -14 -13 0 3 -19 -12 -42 -33 -23 -22 -47 -40 -55 -40
-7 0 -13 -4 -13 -8 0 -4 -23 -26 -52 -47 -29 -22 -66 -52 -82 -67 -17 -16 -36
-28 -42 -28 -7 0 -14 -3 -16 -7 -3 -8 -77 -65 -119 -93 -12 -8 -40 -30 -61
-49 -21 -18 -38 -31 -38 -28 0 2 -17 -10 -37 -29 -20 -19 -38 -32 -41 -30 -2
2 -16 -9 -31 -25 -16 -16 -31 -29 -35 -29 -6 0 -45 -31 -78 -62 -10 -10 -23
-18 -29 -18 -7 0 -22 -11 -35 -26 -13 -14 -24 -21 -24 -17 0 4 -5 0 -11 -9 -5
-10 -20 -18 -31 -18 -12 0 -19 -3 -15 -6 3 -4 -17 -22 -46 -41 -29 -20 -57
-42 -64 -50 -6 -8 -14 -14 -17 -13 -4 0 -24 -14 -45 -31 -22 -17 -43 -32 -47
-33 -5 0 -22 -13 -38 -28 -17 -16 -34 -28 -39 -28 -5 0 -14 -6 -21 -12 -8 -7
-24 -20 -36 -28 -12 -8 -33 -23 -45 -32 -13 -10 -28 -18 -35 -18 -6 0 -9 -4
-6 -8 3 -5 -10 -15 -29 -22 -19 -8 -35 -17 -35 -22 0 -4 -5 -8 -11 -8 -6 0
-25 -11 -42 -24 -18 -13 -54 -35 -81 -50 -26 -15 -55 -33 -63 -41 -7 -8 -27
-22 -43 -32 -17 -9 -30 -21 -30 -25 0 -4 -7 -8 -16 -8 -9 0 -24 -8 -33 -18 -9
-10 -33 -26 -53 -35 -20 -10 -40 -22 -43 -27 -4 -6 -10 -8 -15 -5 -5 3 -13 -3
-19 -12 -6 -10 -11 -14 -11 -10 0 5 -13 -1 -30 -13 -16 -12 -30 -18 -30 -14 0
4 -8 0 -17 -8 -19 -16 -205 -108 -226 -112 -7 -1 -30 -12 -53 -24 -23 -11 -52
-22 -65 -24 -13 -2 -29 -6 -34 -10 -6 -3 -28 -9 -50 -13 -22 -4 -49 -10 -60
-12 -51 -11 -74 -14 -135 -18 -104 -7 -128 -6 -135 5 -3 4 -14 6 -25 3 -13 -3
-31 7 -57 31 -21 20 -42 36 -46 36 -5 0 -5 5 -2 10 3 6 1 10 -5 10 -12 0 -112
79 -118 93 -2 4 -10 7 -18 7 -8 0 -14 4 -14 9 0 5 -17 16 -37 25 -46 20 -75
37 -97 55 -9 7 -16 10 -16 6 0 -4 -6 -3 -13 2 -12 10 -85 28 -100 25 -4 -1
-19 -3 -33 -4 -45 -4 -112 -84 -99 -120 2 -7 6 -33 9 -58 2 -25 5 -45 6 -45 1
0 4 -13 6 -30 3 -16 8 -32 12 -35 4 -3 8 -16 10 -30 1 -14 11 -44 22 -67 11
-24 20 -50 20 -58 0 -8 4 -15 8 -15 5 0 14 -17 20 -39 7 -21 19 -44 27 -51 8
-7 15 -18 15 -24 0 -7 9 -22 20 -34 12 -12 17 -22 13 -22 -4 0 -3 -4 2 -8 12
-9 32 -39 46 -72 5 -13 13 -27 17 -30 4 -3 13 -16 20 -30 6 -14 28 -45 47 -70
19 -25 38 -52 42 -60 4 -8 12 -20 17 -27 29 -33 37 -43 37 -50 3 -21 12 -32
22 -26 5 3 7 1 3 -5 -6 -10 16 -41 84 -115 19 -21 39 -46 44 -55 5 -10 12 -19
16 -22 3 -3 21 -26 40 -53 18 -26 37 -47 42 -47 5 0 7 -4 3 -9 -3 -5 4 -12 15
-16 11 -3 20 -10 20 -14 0 -4 18 -26 40 -49 23 -23 39 -42 37 -42 -2 0 24 -29
58 -65 33 -36 66 -65 73 -65 7 0 11 -3 10 -8 -3 -9 55 -66 103 -102 18 -14 60
-51 93 -82 32 -32 62 -58 65 -58 4 0 17 -9 29 -20 12 -12 22 -18 22 -14 0 4 8
-3 19 -14 10 -12 25 -22 34 -22 9 0 20 -6 24 -12 4 -7 26 -22 48 -33 22 -11
42 -22 45 -25 23 -26 160 -38 188 -17 7 6 12 6 12 -1 0 -5 -17 -22 -37 -38
-21 -15 -41 -33 -45 -38 -4 -6 -8 -8 -8 -4 0 4 -13 -5 -29 -20 -38 -35 -82
-72 -86 -72 -4 0 -48 -37 -86 -73 -16 -15 -34 -27 -39 -27 -5 0 -14 -8 -19
-17 -6 -10 -11 -13 -11 -8 0 6 -3 6 -8 -1 -4 -6 -32 -31 -62 -55 -30 -25 -64
-52 -75 -61 -27 -23 -143 -116 -188 -152 -20 -16 -34 -33 -31 -37 3 -5 -2 -6
-10 -3 -9 3 -20 -3 -28 -15 -7 -12 -17 -21 -22 -21 -5 0 -19 -11 -31 -24 -13
-14 -25 -23 -28 -20 -3 3 -14 -6 -25 -20 -11 -15 -24 -26 -30 -26 -6 0 -12 -4
-14 -8 -1 -4 -23 -23 -48 -42 -48 -38 -95 -77 -116 -98 -8 -7 -14 -10 -14 -6
0 4 -8 -2 -17 -12 -10 -11 -38 -35 -63 -54 -25 -19 -53 -43 -63 -54 -9 -10
-17 -16 -17 -13 0 4 -8 -1 -18 -10 -10 -10 -35 -31 -56 -48 -21 -16 -45 -36
-52 -42 -7 -7 -15 -13 -18 -13 -3 0 -16 -10 -28 -22 -13 -13 -39 -35 -58 -50
-65 -50 -105 -83 -132 -109 -15 -15 -29 -24 -32 -22 -3 3 -15 -6 -28 -19 -13
-13 -48 -43 -78 -67 -30 -23 -59 -49 -63 -57 -4 -8 -15 -14 -22 -14 -8 0 -15
-5 -15 -11 0 -5 -4 -7 -10 -4 -5 3 -10 -1 -10 -9 0 -9 -6 -16 -14 -16 -8 0
-22 -10 -30 -22 -9 -12 -16 -18 -16 -13 0 6 -5 2 -11 -7 -5 -10 -14 -18 -19
-18 -14 0 -56 -43 -52 -53 1 -5 -2 -6 -6 -3 -5 3 -21 -5 -36 -19 -14 -13 -26
-22 -26 -20 0 3 -16 -11 -36 -30 -20 -19 -39 -35 -42 -35 -4 0 -21 -12 -37
-28 -17 -15 -51 -43 -75 -62 -70 -54 -82 -64 -102 -83 -10 -9 -22 -17 -28 -17
-5 0 -14 -9 -20 -20 -6 -11 -15 -20 -20 -20 -6 0 -18 -8 -28 -18 -10 -9 -35
-30 -56 -47 -21 -16 -45 -36 -52 -42 -7 -7 -18 -13 -24 -13 -6 0 -8 -4 -5 -10
3 -5 2 -10 -3 -10 -5 0 -18 -8 -30 -17 -11 -10 -30 -25 -42 -33 -12 -8 -32
-24 -44 -35 -12 -11 -35 -29 -51 -40 -16 -11 -43 -35 -61 -52 -17 -18 -35 -33
-38 -33 -4 0 -13 -6 -21 -12 -7 -7 -30 -26 -50 -43 -21 -16 -44 -36 -51 -43
-8 -7 -14 -11 -14 -8 0 3 -11 -5 -23 -17 -35 -33 -118 -101 -136 -111 -8 -5
-26 -20 -39 -33 -12 -13 -27 -23 -32 -23 -6 0 -10 -7 -10 -15 0 -8 -3 -14 -7
-14 -21 3 -33 -3 -33 -17 0 -8 -4 -12 -10 -9 -5 3 -10 1 -10 -6 0 -7 -3 -10
-6 -7 -3 3 -15 -4 -28 -16 -12 -11 -39 -34 -60 -51 -20 -16 -47 -38 -59 -48
-12 -10 -35 -28 -50 -40 -15 -12 -38 -31 -51 -42 -53 -46 -110 -91 -130 -102
-12 -7 -18 -12 -14 -13 3 0 -18 -25 -48 -56 -30 -31 -54 -63 -54 -71 0 -8 -4
-11 -10 -8 -5 3 -10 0 -10 -8 0 -8 -9 -25 -20 -39 -10 -14 -28 -58 -39 -98
-10 -40 -24 -76 -29 -79 -6 -4 -15 -18 -21 -32 -7 -20 -5 -32 8 -53 10 -14 20
-24 23 -21 2 3 10 -7 17 -23 8 -15 17 -35 22 -44 5 -10 9 -22 9 -28 0 -11 19
-35 71 -91 20 -21 34 -42 30 -46 -3 -4 -2 -5 3 -1 7 6 60 -23 76 -42 3 -3 20
-12 38 -19 17 -8 32 -17 32 -22 0 -5 8 -9 18 -9 9 0 37 -7 62 -16 25 -9 56
-18 70 -21 43 -8 201 -10 206 -2 2 4 13 6 24 4 11 -2 22 -1 24 3 2 4 19 9 37
10 18 1 52 11 77 22 24 11 51 20 58 20 8 0 14 4 14 9 0 5 17 15 38 21 20 7 42
18 47 25 6 6 13 12 18 13 17 3 67 37 67 47 0 5 5 3 10 -5 8 -13 10 -12 10 4 0
11 3 17 6 14 3 -3 22 10 42 29 20 18 49 41 64 51 16 9 28 20 28 24 0 4 7 8 15
8 8 0 15 5 15 10 0 6 13 18 30 29 16 10 27 20 24 23 -3 4 4 9 15 13 11 3 36
22 56 40 19 19 35 31 35 27 1 -4 10 4 20 17 11 13 20 21 20 18 0 -5 55 42 106
89 12 12 25 19 28 17 3 -3 8 2 12 11 3 9 10 16 15 16 9 0 50 33 96 77 13 13
26 23 28 23 12 0 103 78 98 84 -4 3 1 6 9 6 8 0 27 10 41 23 14 12 40 33 56
47 76 61 106 87 129 110 14 14 22 18 17 10 -4 -8 1 -6 13 5 11 11 34 31 51 45
17 14 42 35 56 48 14 13 25 20 25 16 0 -4 10 4 23 17 37 38 65 58 71 52 3 -4
6 1 6 10 0 9 6 17 13 17 6 0 28 15 48 33 80 70 98 84 104 79 3 -3 5 2 5 12 0
9 5 14 10 11 5 -3 10 -1 10 5 0 6 5 8 10 5 6 -3 10 1 10 10 0 9 5 13 10 10 5
-3 10 1 10 9 0 9 3 15 7 14 8 -3 77 46 98 68 6 5 33 28 60 49 28 22 59 47 69
57 10 10 24 15 29 11 6 -3 7 -2 4 3 -3 5 10 20 29 33 19 13 34 27 34 32 0 5 4
9 9 9 9 0 41 24 82 62 10 10 23 18 29 18 5 0 10 4 10 9 0 5 24 26 53 47 28 21
58 46 65 56 7 10 17 18 22 18 8 0 40 25 81 62 10 10 23 18 28 18 5 0 11 7 15
15 3 8 12 15 21 15 8 0 15 5 15 11 0 5 5 7 10 4 6 -4 9 -2 8 2 -2 5 23 30 54
56 32 26 58 45 58 42 0 -3 13 9 29 25 15 17 33 30 40 30 6 0 11 4 11 9 0 5 20
24 45 42 25 19 56 43 68 54 13 11 36 29 52 40 15 11 37 30 48 43 11 12 27 22
34 22 7 0 13 4 13 8 0 4 24 26 53 47 28 22 54 43 55 48 2 4 10 7 18 7 9 0 12
5 9 10 -3 6 -2 10 3 10 4 0 18 9 30 20 12 12 22 18 22 14 0 -4 11 6 25 22 14
16 25 26 25 22 0 -4 16 8 36 27 20 19 40 33 45 29 5 -3 9 2 9 10 0 9 5 16 11
16 5 0 7 4 4 10 -3 6 1 7 9 4 9 -3 16 -2 16 3 0 5 24 26 53 48 61 46 59 44
117 95 25 22 49 40 53 40 4 0 19 11 33 25 14 14 29 25 34 25 6 0 10 7 10 15 0
8 3 14 8 14 19 -3 33 2 27 11 -3 6 -1 10 5 10 6 0 25 14 43 30 18 17 44 38 60
48 15 9 27 20 27 24 0 4 5 8 10 8 7 0 10 -366 10 -1078 0 -1178 -2 -1131 58
-1251 57 -114 225 -254 409 -342 170 -81 451 -168 630 -194 21 -4 45 -8 53
-10 17 -5 133 -22 206 -30 27 -3 65 -8 84 -10 221 -26 781 -26 990 0 19 3 59
7 89 10 48 5 173 24 266 40 17 3 89 20 160 37 534 127 872 363 920 643 3 17 5
605 5 1308 1 1420 4 1348 -66 1467 -84 143 -275 283 -519 380 -74 29 -281 95
-327 104 -13 2 -54 11 -93 20 -125 28 -277 51 -467 71 -232 24 -744 24 -927 0
-29 -4 -32 -3 -21 10 7 9 15 13 18 11 8 -8 62 34 62 48 0 7 9 22 20 34 15 16
27 20 54 15 25 -4 39 0 54 13 31 30 65 54 75 54 5 0 6 12 3 26 -8 29 16 64 41
64 8 0 12 4 8 9 -3 5 3 12 12 15 10 3 35 22 56 41 21 19 42 35 46 35 4 0 16 9
26 20 10 11 22 20 28 20 5 0 18 10 28 22 11 11 19 17 19 12 0 -5 4 -4 8 1 4 6
36 33 71 60 35 28 73 59 85 70 11 11 33 20 48 19 15 -1 26 2 24 5 -2 3 2 12
10 19 8 7 14 9 14 5 0 -4 7 3 16 15 8 12 20 20 25 17 5 -4 9 7 9 24 0 21 6 32
21 36 11 4 18 9 15 12 -3 3 4 14 15 24 12 11 19 25 15 34 -6 17 49 86 68 84
35 -4 76 30 76 63 0 10 6 18 14 18 7 0 19 7 26 15 10 11 17 12 34 3 11 -6 24
-15 27 -20 3 -5 17 -10 30 -12 14 -1 30 -6 37 -10 7 -4 20 -2 29 6 14 11 16
11 8 -2 -7 -12 -3 -11 18 3 15 9 27 15 27 12 0 -3 11 5 24 18 16 16 33 23 55
21 35 -2 83 35 95 74 7 22 -19 101 -40 118 -8 6 -11 14 -7 17 3 4 0 7 -7 7 -7
0 -11 3 -7 6 3 3 2 11 -3 18 -21 26 -67 79 -88 102 -13 13 -20 24 -16 24 3 0
-17 17 -45 38 -30 23 -60 38 -74 36 -12 -1 -31 -3 -43 -3 -34 -2 -74 -43 -74
-77 0 -29 -28 -64 -52 -64 -6 0 -8 -3 -5 -7 4 -3 -1 -11 -9 -18 -21 -15 -23
-135 -2 -135 14 0 8 -41 -7 -46 -8 -4 -12 -11 -8 -17 3 -5 1 -7 -5 -3 -6 3
-13 2 -16 -3 -3 -4 -18 -11 -33 -14 -18 -3 -35 -18 -48 -39 -27 -47 -56 -68
-90 -66 -17 1 -46 -6 -64 -15 -19 -9 -46 -17 -61 -17 -15 0 -33 -7 -40 -15 -7
-8 -16 -15 -21 -15 -13 0 -59 -46 -59 -59 0 -14 -38 -53 -90 -93 -19 -14 -50
-40 -68 -57 -18 -17 -37 -31 -41 -31 -4 0 -14 -11 -21 -25 -7 -14 -18 -25 -24
-25 -7 0 -18 -9 -26 -20 -20 -28 -42 -25 -104 15 -30 19 -61 35 -68 35 -18 1
-89 35 -84 41 3 3 -16 16 -42 29 -26 14 -49 27 -52 30 -12 12 -70 50 -77 50
-4 0 -25 18 -47 40 -21 22 -43 40 -47 40 -14 0 -10 30 5 46 8 8 17 14 20 14 4
0 19 11 34 24 15 14 45 41 67 60 22 20 43 36 47 36 4 0 21 13 37 29 16 16 44
37 60 47 17 10 31 24 31 32 0 7 5 10 10 7 6 -3 10 -1 10 6 0 7 2 10 5 7 3 -3
22 10 41 29 19 18 39 31 45 28 5 -4 8 -3 7 2 -2 4 10 20 25 35 15 15 27 24 27
20 0 -4 7 2 15 12 8 11 15 16 15 12 0 -5 9 2 20 15 10 13 19 21 20 17 0 -4 13
5 29 20 39 36 81 72 121 102 18 14 41 33 51 43 11 9 22 17 25 17 4 0 17 12 30
26 14 15 29 22 37 18 6 -4 9 -4 5 1 -8 9 15 35 31 35 6 0 11 7 11 16 0 8 4 13
9 10 4 -3 27 12 50 34 23 22 44 40 46 40 5 0 46 34 71 58 8 7 14 11 14 7 0 -4
13 6 29 22 43 42 71 64 71 55 0 -4 9 6 19 21 10 16 22 29 27 28 5 0 20 10 34
22 14 12 46 38 70 57 25 19 47 38 48 42 2 4 10 8 18 8 8 0 14 7 14 17 0 9 3
14 6 10 7 -6 15 0 69 50 18 17 36 29 39 25 3 -3 6 0 6 7 0 7 5 9 10 6 6 -3 10
2 10 11 0 10 3 15 6 12 3 -3 20 9 39 27 18 19 36 31 39 28 3 -4 6 -1 6 5 0 7
4 12 9 12 5 0 22 12 38 28 27 25 51 44 111 89 13 10 34 28 47 41 13 12 28 22
33 22 6 0 12 7 16 15 3 8 13 15 21 15 9 0 14 4 10 9 -3 5 3 12 12 15 10 3 36
22 57 41 22 19 44 35 48 35 5 0 6 5 3 10 -3 6 0 10 7 10 7 0 30 16 51 35 20
18 37 31 37 28 0 -3 14 8 30 25 17 18 30 28 30 24 1 -4 10 4 20 17 11 13 20
19 20 15 0 -5 7 2 16 14 8 12 20 22 25 22 5 0 23 14 39 30 17 17 30 28 30 24
0 -4 14 7 30 25 17 17 35 31 40 31 6 0 13 7 16 15 4 8 10 12 15 9 5 -3 9 2 9
11 0 9 4 14 9 10 5 -3 16 3 23 12 7 10 25 24 40 32 15 8 26 17 24 20 -2 3 2
12 10 19 8 7 14 10 14 6 0 -4 14 5 30 21 17 16 30 25 30 21 0 -4 7 -1 15 8 8
8 15 20 15 27 0 7 3 10 6 6 4 -3 12 -1 19 6 25 23 55 47 55 42 0 -2 23 19 51
48 29 29 56 51 60 50 5 -2 9 4 9 11 0 8 10 26 23 40 23 25 70 110 73 135 2 8
8 17 14 21 9 6 9 9 0 15 -8 5 -9 10 -2 14 6 3 13 22 15 41 3 19 6 35 7 35 11
0 14 152 4 235 -3 30 -6 61 -7 68 0 6 -4 12 -9 12 -5 0 -7 4 -3 10 3 5 -1 26
-10 46 -8 20 -15 42 -15 50 0 7 -5 25 -12 41 -6 15 -11 31 -10 36 1 4 -2 7 -7
7 -5 0 -11 13 -14 29 -3 16 -12 35 -19 42 -8 8 -20 30 -28 49 -8 19 -20 41
-27 48 -7 7 -13 21 -13 29 0 9 -3 13 -7 10 -3 -4 -15 7 -25 24 -22 35 -36 54
-60 77 -10 9 -18 20 -18 24 0 14 -125 133 -155 148 -17 8 -41 22 -55 31 -37
24 -200 78 -200 67 0 -7 -4 -7 -13 0 -15 12 -177 12 -177 0 0 -5 -9 -4 -19 2
-15 7 -23 6 -35 -5z m278 -230 c43 -9 136 -55 136 -67 0 -5 5 -8 10 -8 18 0
130 -128 130 -147 0 -6 7 -14 16 -17 8 -3 12 -10 9 -16 -3 -6 1 -13 9 -16 9
-3 16 -12 16 -19 0 -7 6 -18 13 -24 8 -6 20 -30 27 -53 8 -24 23 -59 33 -78
11 -19 21 -44 22 -55 2 -11 6 -33 10 -50 8 -39 13 -184 5 -191 -3 -3 -6 -19
-6 -35 -1 -16 -3 -31 -4 -34 -1 -3 -3 -8 -4 -12 -1 -5 -12 -30 -24 -57 -12
-27 -22 -52 -22 -57 0 -5 -5 -9 -10 -9 -6 0 -15 -11 -20 -25 -5 -14 -15 -25
-21 -25 -7 0 -10 -3 -7 -6 8 -8 -63 -75 -73 -68 -5 3 -9 -2 -9 -10 0 -8 -9
-17 -19 -21 -11 -3 -22 -12 -25 -20 -3 -8 -10 -15 -16 -15 -6 0 -24 -12 -39
-27 -62 -59 -72 -63 -97 -38 -8 8 -14 16 -13 17 1 2 -10 22 -24 45 -15 24 -27
47 -27 53 0 5 -5 10 -10 10 -6 0 -15 10 -20 23 -15 34 -33 60 -58 82 l-22 21
22 24 c12 13 24 31 25 39 14 82 13 104 -4 157 -10 32 -28 69 -39 81 -23 25
-94 76 -94 67 0 -2 -14 3 -31 12 -17 8 -54 17 -83 19 -28 2 -54 3 -58 4 -4 1
-5 8 -2 16 4 8 1 15 -5 15 -6 0 -8 7 -5 15 4 8 2 15 -2 15 -5 0 -15 13 -22 28
-6 16 -21 38 -31 49 -11 12 -17 23 -14 27 3 3 -2 8 -11 12 -9 3 -14 9 -11 14
2 4 -3 16 -13 26 -23 26 -28 74 -8 74 9 0 16 5 16 10 0 6 8 14 18 17 9 4 29
18 43 32 35 34 68 61 74 61 6 0 52 40 103 88 18 17 38 30 43 26 5 -3 9 -1 9 3
0 26 127 36 214 18z m-578 -396 c9 -22 27 -50 38 -63 12 -12 30 -39 40 -59 11
-21 23 -37 28 -37 5 0 15 -6 22 -12 11 -11 9 -22 -11 -68 -22 -50 -31 -112
-20 -150 9 -33 46 -108 56 -115 6 -3 9 -11 6 -16 -4 -5 -2 -9 4 -9 5 0 16 -6
23 -13 26 -25 123 -56 164 -53 23 2 48 0 55 -5 12 -7 12 -9 0 -9 -12 0 -12 -3
-3 -12 7 -7 12 -18 12 -25 0 -7 9 -24 21 -37 12 -13 20 -27 19 -31 -1 -4 8
-15 19 -24 11 -10 18 -20 16 -23 -3 -3 1 -11 10 -18 8 -7 15 -17 15 -22 0 -8
8 -19 36 -51 14 -16 9 -48 -8 -58 -16 -10 -54 -40 -88 -69 -14 -12 -40 -34
-59 -48 -19 -15 -43 -35 -53 -44 -10 -10 -21 -18 -25 -18 -5 0 -24 -16 -43
-35 -19 -19 -37 -35 -42 -35 -4 0 -16 -10 -28 -22 -11 -12 -20 -19 -20 -16 0
4 -15 -8 -34 -25 -44 -41 -78 -67 -89 -67 -4 0 -5 -4 -2 -10 3 -5 1 -10 -5
-10 -11 0 -28 -12 -61 -45 l-21 -20 -34 40 c-18 22 -34 44 -34 48 0 5 -11 23
-25 41 -14 18 -25 36 -25 39 0 9 -27 42 -65 82 -28 29 -38 43 -69 99 -6 11
-19 29 -28 40 -10 11 -18 23 -18 28 0 4 -25 45 -55 92 -30 46 -55 89 -55 95 0
6 -4 11 -10 11 -5 0 -12 11 -16 25 -3 14 -13 25 -21 25 -8 0 -12 4 -8 9 3 5 1
12 -4 15 -5 3 -7 15 -4 26 3 11 0 20 -6 20 -9 0 -23 21 -70 109 -8 14 -20 30
-28 34 -7 5 -11 13 -7 18 3 6 -2 16 -12 24 -17 12 -14 16 34 63 29 28 52 48
52 45 0 -3 11 6 25 21 14 15 25 24 25 20 0 -3 8 2 18 13 9 10 13 12 7 4 -5 -9
14 8 44 36 29 29 57 50 61 48 5 -3 11 4 15 15 4 11 10 18 14 16 4 -3 14 4 21
15 8 10 18 19 23 19 4 0 18 10 31 23 40 38 71 63 90 70 10 4 14 12 10 18 -4 7
-3 9 4 5 6 -3 18 4 26 16 9 12 16 19 16 15 0 -4 11 3 25 17 32 32 58 24 81
-25z m-691 -530 c-4 -5 -1 -9 5 -9 6 0 14 -8 18 -17 16 -39 94 -153 102 -148
5 3 19 -12 31 -32 13 -21 26 -40 29 -43 11 -9 70 -110 70 -120 0 -6 7 -13 15
-16 8 -4 15 -10 15 -15 0 -12 72 -127 94 -151 9 -10 14 -18 11 -18 -3 0 2 -12
12 -26 9 -15 19 -36 20 -47 2 -12 15 -35 28 -53 14 -18 25 -37 25 -43 0 -6 3
-11 8 -11 4 0 19 -21 32 -47 14 -27 28 -50 33 -51 4 -2 13 -16 21 -30 11 -24
11 -29 -6 -44 -10 -10 -18 -15 -18 -12 0 4 -10 -5 -21 -20 -12 -15 -24 -25
-27 -22 -3 3 -10 0 -16 -7 -23 -27 -134 -117 -145 -117 -6 0 -11 -7 -11 -15 0
-8 -4 -14 -9 -12 -5 1 -25 -12 -43 -29 -18 -16 -59 -50 -90 -73 -32 -24 -58
-47 -58 -52 0 -5 -6 -9 -12 -9 -7 0 -33 -18 -58 -40 -25 -22 -49 -40 -53 -40
-5 0 -6 -4 -3 -9 3 -5 -6 -12 -19 -15 -14 -4 -23 -11 -20 -16 5 -9 1 -11 -20
-10 -11 1 -33 -25 -28 -32 2 -5 0 -8 -6 -8 -5 0 -23 -11 -39 -25 -16 -13 -33
-21 -37 -17 -5 4 -6 3 -3 -3 3 -5 0 -16 -8 -23 -8 -7 -14 -9 -14 -5 0 4 -6 1
-13 -7 -7 -9 -33 -32 -59 -52 -26 -19 -45 -38 -41 -42 3 -3 0 -6 -8 -6 -8 0
-34 -18 -57 -39 -23 -22 -42 -36 -42 -33 0 4 -7 -2 -15 -12 -8 -11 -15 -16
-15 -12 0 4 -11 -4 -24 -18 -13 -15 -26 -26 -29 -26 -3 0 -25 -18 -49 -39 -23
-22 -46 -37 -50 -35 -4 3 -8 -2 -8 -10 0 -8 -9 -18 -20 -21 -11 -3 -20 -11
-20 -17 0 -6 -3 -9 -6 -5 -4 3 -19 -6 -34 -21 -16 -15 -41 -37 -57 -49 -15
-12 -38 -30 -50 -40 -12 -10 -39 -31 -59 -48 -21 -16 -48 -40 -61 -52 -13 -12
-23 -19 -23 -16 0 3 -9 -4 -20 -17 -11 -13 -20 -20 -20 -17 0 4 -8 -1 -18 -10
-11 -10 -17 -22 -14 -27 3 -5 0 -6 -6 -2 -6 3 -25 -7 -43 -23 -18 -17 -37 -27
-43 -24 -6 3 -8 3 -4 -1 6 -7 -9 -24 -59 -66 -9 -8 -22 4 -50 47 -21 32 -44
62 -51 66 -7 5 -10 12 -7 16 2 5 -2 14 -10 21 -8 7 -15 19 -15 27 0 7 -7 16
-15 19 -8 4 -12 10 -9 15 3 5 -8 17 -25 26 -16 10 -41 39 -54 65 -14 26 -27
44 -31 41 -3 -4 -6 -1 -6 5 0 13 -59 114 -71 122 -4 3 -13 17 -18 30 -13 29
-31 59 -49 78 -7 7 -10 18 -7 23 4 5 2 9 -3 9 -13 0 -64 88 -58 99 3 5 -8 27
-24 50 -17 22 -30 45 -30 51 0 5 -4 10 -10 10 -5 0 -10 7 -10 15 0 8 -3 15 -7
15 -5 0 -15 13 -25 29 -19 34 -13 46 41 86 19 14 31 25 27 25 -4 0 10 15 31
33 21 17 47 39 57 47 9 8 26 22 36 32 10 9 21 14 24 11 3 -4 6 0 6 8 0 8 18
26 39 39 21 14 37 28 34 33 -2 4 1 7 7 7 13 0 29 12 81 63 21 20 41 37 44 37
5 0 45 33 76 61 9 9 33 28 53 41 20 14 33 28 29 31 -3 4 1 7 10 7 9 0 20 6 24
13 9 13 98 86 109 90 4 1 22 16 40 32 18 17 48 42 66 57 18 15 43 35 55 45 12
10 36 29 53 43 18 14 51 42 74 62 22 21 44 38 49 38 4 0 15 8 25 18 10 9 37
33 61 52 24 19 54 44 67 55 13 11 36 29 50 40 14 11 38 32 52 48 14 15 29 27
34 27 9 0 53 36 77 63 8 9 21 17 28 17 6 0 16 6 20 13 13 19 160 137 172 137
6 0 11 6 11 13 0 21 52 47 72 36 10 -6 16 -14 13 -20z m-1825 -1484 c1 6 7 -3
15 -20 27 -56 57 -100 78 -118 12 -10 15 -15 7 -11 -8 4 4 -12 27 -35 23 -23
45 -51 48 -62 4 -10 11 -19 17 -19 6 0 8 -3 5 -7 -4 -3 3 -17 15 -31 13 -13
21 -24 18 -25 -5 -2 80 -130 93 -138 5 -3 8 -10 6 -14 -2 -7 14 -33 43 -67 10
-11 15 -25 12 -29 -3 -5 2 -12 10 -15 9 -3 14 -10 11 -14 -3 -5 -1 -11 4 -15
6 -3 8 -12 4 -20 -3 -8 0 -15 7 -15 6 0 9 -4 6 -8 -4 -7 41 -77 83 -128 6 -7
7 -15 4 -18 -4 -3 -1 -6 5 -6 7 0 12 -7 12 -15 0 -8 5 -15 10 -15 6 0 10 -7
10 -15 0 -8 5 -15 10 -15 6 0 10 -9 10 -20 0 -11 -7 -20 -16 -20 -8 0 -13 -4
-10 -8 2 -4 -12 -19 -32 -32 -20 -14 -48 -36 -64 -50 -38 -35 -88 -63 -88 -51
0 6 -9 11 -20 11 -11 0 -20 -5 -20 -12 0 -6 -2 -9 -5 -6 -3 3 -23 -11 -45 -31
-30 -27 -40 -44 -40 -67 0 -37 -16 -54 -50 -54 -24 0 -86 -40 -64 -40 5 -1 -1
-9 -13 -19 -12 -10 -19 -21 -16 -25 4 -3 0 -6 -8 -6 -8 0 -29 -13 -47 -30 -18
-16 -38 -30 -43 -30 -6 0 -7 -4 -4 -10 3 -5 1 -10 -5 -10 -6 0 -16 -5 -23 -10
-7 -6 -31 -26 -54 -46 -23 -19 -43 -34 -45 -33 -2 1 -23 -16 -48 -40 -65 -60
-80 -72 -80 -63 0 4 -4 2 -8 -3 -4 -6 -34 -33 -67 -60 -33 -28 -61 -53 -63
-57 -2 -5 -10 -8 -18 -8 -8 0 -17 -6 -20 -14 -3 -7 -24 -27 -47 -44 -23 -16
-53 -40 -67 -52 -14 -12 -44 -36 -67 -53 -24 -17 -43 -34 -43 -39 0 -4 -4 -8
-10 -8 -10 0 -18 -6 -82 -65 -21 -19 -38 -32 -38 -28 0 3 -8 -3 -17 -13 -10
-11 -34 -31 -53 -44 -19 -13 -42 -31 -51 -39 -9 -9 -30 -27 -49 -41 -18 -14
-42 -33 -53 -42 -11 -10 -24 -18 -29 -18 -5 0 -7 -4 -3 -9 3 -5 -5 -11 -17
-13 -13 -2 -22 -9 -20 -16 1 -6 -2 -12 -6 -12 -5 0 -19 -9 -32 -20 -27 -24
-42 -18 -32 13 9 25 9 25 -3 87 -5 25 -9 50 -10 55 -3 32 -18 75 -26 75 -6 0
-5 8 1 20 6 11 7 20 3 20 -5 0 -14 15 -22 33 -7 17 -19 46 -27 64 -8 17 -14
36 -14 42 0 6 -4 11 -8 11 -4 0 -8 9 -9 20 -1 11 -10 29 -21 40 -10 11 -29 42
-42 70 -25 52 -24 54 15 232 2 9 11 30 19 47 9 17 13 31 9 31 -5 0 -2 4 4 8 7
4 14 17 16 27 9 46 75 185 88 185 5 0 9 5 9 10 0 12 15 32 43 58 9 9 17 24 17
34 0 10 4 18 8 18 5 0 24 22 43 49 18 27 36 48 40 46 3 -3 12 7 19 20 7 14 19
25 27 25 7 0 13 5 13 11 0 5 14 24 30 42 17 18 33 40 36 50 3 9 12 17 20 17 8
0 14 4 14 8 0 14 97 112 104 105 3 -4 6 1 6 10 0 10 8 17 17 17 9 0 14 3 11 6
-6 6 19 33 71 77 18 15 31 27 28 27 -2 0 17 22 42 48 25 27 49 47 54 45 4 -2
7 3 7 12 0 8 10 20 23 25 12 5 19 9 15 9 -4 1 3 11 15 24 12 13 25 22 30 20 4
-2 7 3 7 12 0 9 5 13 10 10 6 -3 10 1 10 9 0 9 4 16 9 16 6 0 41 30 79 68 115
110 149 142 154 142 3 0 24 18 47 40 22 22 46 40 52 40 5 0 7 5 4 10 -3 6 -1
10 4 10 6 0 21 10 32 21 17 17 23 19 30 8 5 -8 9 -9 9 -4z m715 -1191 c6 -6
28 -18 50 -24 39 -13 97 -47 103 -62 2 -5 10 -8 18 -8 8 0 14 -4 14 -8 0 -5
16 -14 35 -22 19 -8 35 -16 35 -20 0 -8 53 -39 63 -37 4 1 17 -12 28 -30 11
-17 35 -38 54 -48 40 -18 43 -27 15 -55 -21 -21 -40 -26 -40 -11 0 18 -41 2
-70 -28 -16 -16 -34 -31 -39 -33 -5 -1 -12 -18 -14 -36 -7 -43 -34 -73 -61
-68 -22 4 -61 -18 -61 -34 0 -8 -73 -80 -81 -80 -2 0 -13 -8 -23 -17 -43 -40
-51 -43 -77 -37 -14 4 -28 13 -31 20 -3 8 -8 12 -13 9 -4 -2 -16 5 -28 15 -12
11 -30 20 -41 20 -11 0 -26 7 -34 15 -8 8 -17 11 -21 8 -3 -4 -6 -1 -6 5 0 7
-7 12 -15 12 -8 0 -15 5 -15 10 0 6 -4 10 -9 10 -15 0 -101 60 -101 71 0 5 -3
8 -7 7 -15 -4 -53 13 -53 23 0 6 -4 8 -8 5 -5 -3 -14 5 -21 17 -6 12 -28 31
-48 43 -32 18 -34 22 -20 36 9 9 13 18 10 22 -4 3 0 6 9 6 8 0 23 9 32 19 10
11 25 17 37 14 11 -3 19 0 19 6 0 7 4 10 9 7 5 -3 14 8 20 24 5 17 7 30 3 30
-3 0 3 7 15 15 11 8 36 14 56 13 33 -1 50 8 84 44 9 9 20 15 24 12 4 -2 12 10
18 26 5 17 8 30 5 30 -3 0 11 15 32 33 21 17 47 41 58 52 19 18 24 19 51 6 17
-8 35 -20 40 -27z m-576 -435 c29 -23 60 -39 76 -39 8 0 33 -11 55 -25 22 -14
42 -25 45 -25 3 0 18 -11 33 -25 15 -14 30 -25 34 -25 7 0 38 -20 115 -76 13
-9 20 -20 17 -25 -3 -5 7 -14 21 -19 28 -11 55 -33 55 -47 0 -4 -15 -18 -33
-30 -17 -12 -43 -33 -57 -46 -14 -13 -54 -31 -90 -41 -36 -10 -101 -30 -145
-44 -44 -14 -82 -26 -85 -27 -3 -1 -14 -5 -25 -10 -11 -4 -41 -16 -67 -26
-212 -82 -416 -236 -493 -373 -37 -67 -65 -159 -65 -217 0 -44 -8 -69 -22 -69
-15 0 -84 -62 -80 -73 1 -5 -2 -6 -7 -3 -5 4 -14 -2 -20 -11 -5 -10 -12 -15
-16 -11 -3 3 -30 -16 -58 -43 -29 -27 -55 -49 -58 -49 -4 0 -21 -12 -37 -27
-17 -16 -43 -38 -59 -50 -55 -42 -73 -60 -65 -67 4 -4 2 -6 -3 -5 -13 4 -63
-28 -98 -63 -15 -15 -32 -28 -37 -28 -6 0 -10 -4 -10 -10 0 -5 -5 -10 -10 -10
-6 0 -25 -14 -43 -31 -36 -35 -82 -70 -88 -66 -2 1 -3 0 -2 -2 3 -5 -17 -24
-62 -57 -22 -16 -51 -39 -65 -51 -14 -12 -59 -49 -100 -82 -41 -34 -87 -72
-102 -86 -16 -13 -28 -22 -28 -20 0 3 -9 -3 -19 -12 -42 -39 -73 -63 -82 -63
-6 0 -7 -4 -4 -10 3 -5 1 -10 -4 -10 -6 0 -25 -12 -42 -27 -17 -16 -35 -27
-40 -25 -5 1 -9 -4 -9 -12 0 -13 -27 -31 -42 -28 -4 1 -10 -7 -13 -18 -4 -11
-11 -18 -16 -15 -5 4 -9 1 -9 -4 0 -6 -4 -11 -9 -11 -5 0 -31 -20 -57 -45 -27
-25 -68 -58 -91 -73 -24 -15 -43 -33 -43 -39 0 -7 -4 -13 -10 -13 -17 0 -23
-4 -60 -37 -19 -18 -39 -33 -43 -33 -5 0 -5 -5 -2 -10 3 -6 0 -10 -8 -10 -8 0
-26 -11 -41 -25 -15 -14 -32 -25 -37 -25 -6 0 -7 -4 -4 -10 3 -5 -1 -10 -9
-10 -8 0 -24 -12 -35 -26 -12 -15 -21 -23 -21 -19 0 7 -41 -25 -101 -81 -20
-18 -40 -30 -43 -27 -3 4 -6 2 -6 -3 0 -6 -24 -28 -52 -49 -29 -22 -57 -45
-61 -52 -4 -7 -13 -13 -20 -13 -7 0 -18 -9 -25 -20 -7 -11 -19 -20 -28 -20 -8
0 -12 -4 -9 -10 3 -5 1 -10 -4 -10 -12 0 -52 -31 -88 -69 -13 -13 -23 -20 -23
-16 0 5 -7 0 -15 -11 -8 -10 -15 -15 -15 -11 0 4 -10 -2 -22 -15 -19 -19 -131
-112 -196 -163 -7 -5 -24 -20 -37 -32 -13 -13 -27 -23 -30 -23 -4 0 -12 -6
-19 -12 -25 -25 -66 -58 -71 -58 -2 0 -17 -12 -34 -28 -16 -15 -42 -37 -58
-49 -16 -12 -41 -33 -55 -45 -14 -13 -38 -32 -53 -43 -23 -16 -89 -69 -242
-195 -7 -6 -16 -11 -20 -13 -4 -1 -19 -14 -34 -29 -14 -16 -31 -28 -38 -28 -6
0 -11 -5 -11 -11 0 -5 -5 -7 -12 -3 -6 4 -8 3 -5 -3 4 -6 0 -16 -8 -23 -8 -7
-15 -9 -15 -5 0 5 -10 -4 -23 -18 -12 -15 -28 -27 -35 -27 -7 0 -12 -4 -12 -9
0 -5 -9 -12 -19 -16 -11 -3 -23 -15 -26 -26 -4 -10 -11 -17 -16 -14 -5 4 -9 1
-9 -4 0 -6 -6 -11 -14 -11 -8 0 -16 -7 -20 -15 -3 -8 -9 -14 -13 -13 -4 2 -10
-1 -12 -7 -2 -5 -30 -29 -61 -52 -32 -23 -64 -50 -72 -60 -7 -10 -18 -19 -25
-20 -6 -1 -29 -18 -50 -38 -21 -19 -42 -35 -47 -35 -5 0 -18 -10 -30 -23 -11
-12 -25 -22 -31 -22 -5 0 -26 -10 -45 -22 -19 -12 -37 -21 -40 -21 -3 1 -14
-4 -26 -10 -11 -6 -32 -13 -45 -16 -13 -3 -35 -8 -49 -11 -100 -26 -208 -25
-283 1 -38 13 -105 53 -133 79 -49 46 -18 206 38 192 10 -3 18 -2 18 2 0 5 29
7 64 7 47 -1 62 2 59 11 -5 12 -12 14 -53 18 -8 0 -20 4 -26 8 -6 3 -21 5 -33
2 -19 -3 -21 -1 -15 18 6 23 36 53 93 97 17 14 42 33 53 42 12 10 25 18 30 18
4 0 8 7 8 15 0 8 4 14 9 12 5 -1 24 11 42 28 19 16 35 29 36 28 1 -1 23 17 49
40 25 23 51 42 58 42 6 1 10 6 9 13 -2 7 3 12 10 12 6 0 27 14 44 31 18 16 33
28 33 25 0 -2 24 18 53 45 28 27 58 49 65 49 7 0 10 4 7 10 -3 5 -1 10 5 10 6
0 16 5 23 10 46 39 61 50 69 50 5 0 7 3 5 8 -6 8 19 33 25 26 3 -2 19 9 36 26
18 17 32 27 32 23 0 -5 5 0 11 10 5 9 17 17 24 17 8 0 15 7 15 15 0 8 11 17
25 21 14 3 23 9 21 13 -2 3 2 12 10 19 8 7 14 10 14 7 0 -3 16 9 36 27 20 18
37 32 37 30 1 -2 22 15 46 37 24 22 48 38 52 35 5 -3 9 0 9 6 0 11 27 43 32
38 4 -3 46 32 67 55 8 9 19 17 24 17 4 0 20 11 34 24 15 14 31 22 37 19 6 -3
8 -3 4 2 -8 8 -1 16 62 65 25 19 47 38 48 42 2 4 8 8 13 8 5 0 17 8 28 17 31
30 81 71 81 68 0 -2 10 6 23 18 35 33 66 57 75 57 4 0 13 9 20 20 7 12 17 18
22 15 6 -3 10 -2 10 3 0 5 33 36 72 68 40 32 76 63 80 68 5 7 8 7 8 1 0 -5 7
1 16 13 8 12 20 22 25 22 5 0 20 11 33 25 13 14 26 25 30 25 4 0 24 15 44 34
20 19 40 35 44 36 4 1 24 17 44 35 20 19 42 31 47 28 6 -3 7 -1 3 5 -4 6 6 19
21 29 15 10 34 23 41 31 8 7 30 24 50 39 21 15 49 40 65 55 15 16 32 28 38 28
5 0 30 20 55 44 25 25 48 45 51 44 5 -1 53 38 104 85 10 9 19 15 19 12 0 -2
13 8 29 23 36 35 71 63 71 58 0 -2 19 14 42 35 24 22 48 39 53 39 6 0 19 11
29 25 10 13 22 22 27 19 5 -3 9 2 9 10 0 8 9 18 20 21 11 3 20 11 20 17 0 6 3
9 6 6 3 -3 20 7 37 23 66 61 77 70 77 64 0 -3 11 4 24 17 30 30 65 58 71 58 2
0 15 10 27 23 13 12 42 36 63 52 22 17 57 46 79 65 21 19 42 35 45 35 3 0 5 3
3 8 -1 4 3 7 8 7 6 0 23 11 38 25 15 14 30 25 34 25 4 0 21 14 38 31 16 18 30
29 30 26 0 -4 13 6 29 21 16 15 42 37 57 49 16 12 39 31 52 43 12 11 22 19 22
17 0 -3 19 13 42 34 24 22 46 39 50 39 4 0 23 15 43 33 51 47 65 59 65 52 0
-4 16 10 35 29 19 20 35 34 35 31 0 -3 17 10 38 29 20 18 60 51 87 72 28 20
53 42 57 48 4 6 11 11 16 11 5 0 16 8 26 18 10 9 34 30 54 45 20 15 47 36 59
47 12 11 36 31 54 45 18 14 39 33 48 43 8 9 19 17 23 17 4 0 18 10 32 23 36
33 55 47 61 47 3 0 17 12 30 26 14 15 25 23 25 19 0 -4 10 4 21 19 12 15 23
25 26 22 2 -2 25 16 51 40 26 24 53 44 60 44 6 0 12 4 12 10 0 5 26 29 58 52
31 24 71 55 87 70 17 16 33 28 36 28 4 0 21 13 39 30 33 31 58 34 89 9z"/>
</g>
</svg>
